<?xml version="1.0" encoding="UTF-8" standalone="no"?>
<svg
   xmlns:dc="http://purl.org/dc/elements/1.1/"
   xmlns:cc="http://creativecommons.org/ns#"
   xmlns:rdf="http://www.w3.org/1999/02/22-rdf-syntax-ns#"
   xmlns:svg="http://www.w3.org/2000/svg"
   xmlns="http://www.w3.org/2000/svg"
   xmlns:xlink="http://www.w3.org/1999/xlink"
   xmlns:sodipodi="http://sodipodi.sourceforge.net/DTD/sodipodi-0.dtd"
   xmlns:inkscape="http://www.inkscape.org/namespaces/inkscape"
   sodipodi:docname="logo_original.svg"
   inkscape:version="1.0 (4035a4fb49, 2020-05-01)"
   width="100px"
   height="100px"
   viewBox="0 0 100 100"
   version="1.1"
   id="SVGRoot">
  <defs
     id="defs1995">
    <linearGradient
       id="linearGradient866"
       inkscape:collect="always">
      <stop
         id="stop862"
         offset="0"
         style="stop-color:#022a90;stop-opacity:0.99607843" />
      <stop
         id="stop864"
         offset="1"
         style="stop-color:#009cab;stop-opacity:0.99607843" />
    </linearGradient>
    <linearGradient
       gradientTransform="matrix(0.62609886,0,0,0.62609886,14.706879,149.36344)"
       gradientUnits="userSpaceOnUse"
       y2="-231.83191"
       x2="55.103607"
       y1="-85.7537"
       x1="52.125038"
       id="linearGradient868"
       xlink:href="#linearGradient866"
       inkscape:collect="always" />
  </defs>
  <sodipodi:namedview
     inkscape:window-maximized="1"
     inkscape:window-y="-11"
     inkscape:window-x="-11"
     inkscape:window-height="1046"
     inkscape:window-width="1920"
     showgrid="false"
     inkscape:document-rotation="0"
     inkscape:current-layer="layer2"
     inkscape:document-units="px"
     inkscape:cy="51.74377"
     inkscape:cx="55.566633"
     inkscape:zoom="4"
     inkscape:pageshadow="2"
     inkscape:pageopacity="0.0"
     borderopacity="1.0"
     bordercolor="#666666"
     pagecolor="#ffffff"
     id="base" />
  <metadata
     id="metadata1998">
    <rdf:RDF>
      <cc:Work
         rdf:about="">
        <dc:format>image/svg+xml</dc:format>
        <dc:type
           rdf:resource="http://purl.org/dc/dcmitype/StillImage" />
        <dc:title />
      </cc:Work>
    </rdf:RDF>
  </metadata>
  <g
     id="layer1"
     inkscape:groupmode="layer"
     inkscape:label="Слой 1" />
  <g
     inkscape:label="logo"
     id="layer2"
     inkscape:groupmode="layer"
     style="opacity:0.993">
    <path
       sodipodi:nodetypes="cccsssscsssssscccsssssscssssscccccsssssssccsccssscccssssssssscccscsssssscss"
       id="path860"
       d="m 11.972011,92.385977 v -4.02281 l 20.883108,-0.0037 c 11.485707,-0.0019 22.055107,-0.100852 23.487559,-0.21941 C 66.071735,87.334818 73.136139,83.354445 76.232155,76.9335 77.655259,73.982083 77.9032,69.460473 76.827806,66.07082 74.966402,60.203599 68.124406,55.371324 59.47264,53.813441 57.28336,53.419229 55.810982,53.341175 50.561412,53.341003 41.200646,53.340774 37.295686,52.853823 31.494461,50.96365 26.375446,49.29576 22.46971,47.048333 19.223224,43.90257 16.093532,40.869989 14.12986,37.659063 13.104047,33.896728 12.385755,31.26225 12.338585,25.93163 13.01141,23.426763 15.791025,13.078428 24.68799,6.5111165 38.715553,4.4531911 41.06658,4.1082854 44.425706,4.0403569 63.617771,3.949649 L 85.802376,3.8448099 v 4.0302442 4.0302539 l -22.066291,0.08477 c -19.503761,0.07495 -22.320561,0.131414 -24.255877,0.486703 -4.664643,0.856343 -9.001285,2.79014 -11.854712,5.286244 -3.685969,3.2244 -5.543887,8.957003 -4.431735,13.674122 1.648318,6.991216 8.146274,11.771657 18.047494,13.27724 2.103737,0.319895 3.567311,0.360886 8.237526,0.230703 6.291417,-0.17538 9.187,0.03032 13.606556,0.966398 5.433367,1.150874 10.70291,3.318034 14.368606,5.909271 3.396918,2.401238 6.775579,6.204631 8.433207,9.493346 1.879993,3.729896 2.543463,9.36361 1.625184,13.800004 -2.026539,9.790679 -10.122942,16.944072 -22.652226,20.013865 -4.968282,1.21727 -6.489552,1.280993 -30.583726,1.280993 H 11.972011 Z m 0,-12.52955 v -4.034955 l 20.173199,-0.0048 c 11.931403,-0.0029 20.830039,-0.09966 21.780934,-0.237158 2.386663,-0.345087 4.291024,-1.422722 5.008928,-2.834421 1.348849,-2.652414 0.08604,-5.357319 -3.085196,-6.608408 C 54.506712,65.60682 54.087182,65.576327 45.810925,65.407001 36.909328,65.22487 35.342897,65.073118 31.06539,63.978472 28.082192,63.21504 26.463432,62.61505 23.43928,61.151861 13.68846,56.434055 8.565763,48.421949 9.253902,38.965361 c 0.0876,-1.203881 0.229209,-2.187575 0.314672,-2.185983 0.08547,0.0019 0.665323,0.986593 1.288567,2.188881 3.707889,7.152789 10.767441,13.117393 18.93827,16.00091 5.448293,1.922727 8.817581,2.392448 17.229063,2.401935 3.562415,0.0038 7.258139,0.10871 8.212726,0.232658 6.973377,0.90542 13.459529,5.333433 14.983135,10.228783 1.245792,4.002735 -0.320206,8.635353 -3.908241,11.561541 -1.801838,1.469473 -5.106738,3.127849 -7.604515,3.815906 -1.879367,0.517703 -2.055558,0.522066 -24.31433,0.601393 l -22.421238,0.07992 z M 89.618874,63.213381 C 88.828938,60.768881 87.132498,57.484839 85.422961,55.090742 79.944865,47.419022 71.206854,42.286103 61.073932,40.78752 59.947149,40.620893 55.828275,40.491377 50.898599,40.467577 41.413126,40.421808 40.785054,40.325446 36.582129,38.271153 34.180037,37.09707 31.865406,35.095832 31.020379,33.462469 30.018076,31.525096 29.666485,28.263595 30.207133,25.918452 30.908245,22.877309 33.27776,20.1571 36.62305,18.552953 40.411292,16.73641 39.268794,16.813101 63.854405,16.724939 l 21.947971,-0.07867 v 3.877195 3.877196 L 83.6363,24.554419 c -1.191342,0.08458 -10.42901,0.154346 -20.528154,0.15507 -12.672373,9.54e-4 -18.655379,0.08238 -19.308626,0.262818 -1.833173,0.506431 -3.275905,2.696237 -2.862255,4.344361 0.227857,0.907852 1.564089,2.280428 2.743941,2.818583 0.988636,0.450937 1.683129,0.49682 9.702066,0.64102 7.347351,0.132119 9.028257,0.229645 11.255786,0.653053 8.592599,1.633258 15.081657,4.767169 19.866386,9.594543 4.572519,4.613262 6.731865,9.597232 6.737768,15.551384 0.0019,1.823943 -0.587731,5.861996 -0.901663,6.175922 -0.09384,0.09383 -0.419042,-0.598159 -0.722675,-1.537763 z"
       style="fill:url(#linearGradient868);fill-opacity:1;stroke-width:0.236636" />
  </g>
</svg>
